<svg width="48" height="48" viewBox="0 0 48 48" fill="none" xmlns="http://www.w3.org/2000/svg">
<rect width="48" height="48" rx="12" fill="#191919"/>
<g clip-path="url(#clip0_3336_2421)">
<path d="M14.625 17.5257H24.1408C24.4276 18.8312 25.5934 19.8112 26.9837 19.8112C28.374 19.8112 29.5398 18.8312 29.8266 17.5257H33.375C33.7202 17.5257 34 17.2459 34 16.9007C34 16.5556 33.7202 16.2757 33.375 16.2757H29.8263C29.5389 14.971 28.3716 13.9903 26.9837 13.9903C25.5951 13.9903 24.4283 14.9708 24.1411 16.2757H14.625C14.2798 16.2757 14 16.5556 14 16.9007C14 17.2459 14.2798 17.5257 14.625 17.5257ZM25.3233 16.9024L25.3234 16.8956C25.3261 15.9829 26.0709 15.2403 26.9837 15.2403C27.8952 15.2403 28.6401 15.9819 28.644 16.8942L28.6441 16.9034C28.6427 17.8177 27.8984 18.5612 26.9837 18.5612C26.0694 18.5612 25.3254 17.8185 25.3233 16.9047L25.3233 16.9024ZM33.375 30.4742H29.8263C29.5389 29.1695 28.3716 28.1888 26.9837 28.1888C25.5951 28.1888 24.4283 29.1693 24.1411 30.4742H14.625C14.2798 30.4742 14 30.754 14 31.0992C14 31.4444 14.2798 31.7242 14.625 31.7242H24.1408C24.4276 33.0296 25.5934 34.0097 26.9837 34.0097C28.374 34.0097 29.5398 33.0296 29.8266 31.7242H33.375C33.7202 31.7242 34 31.4444 34 31.0992C34 30.754 33.7202 30.4742 33.375 30.4742ZM26.9837 32.7597C26.0694 32.7597 25.3254 32.0169 25.3233 31.1031L25.3233 31.1008L25.3234 31.0941C25.3261 30.1813 26.0709 29.4388 26.9837 29.4388C27.8952 29.4388 28.6401 30.1803 28.644 31.0926L28.6441 31.1018C28.6428 32.0162 27.8985 32.7597 26.9837 32.7597ZM33.375 23.375H23.8592C23.5724 22.0696 22.4066 21.0896 21.0163 21.0896C19.626 21.0896 18.4602 22.0696 18.1734 23.375H14.625C14.2798 23.375 14 23.6548 14 24C14 24.3452 14.2798 24.625 14.625 24.625H18.1737C18.4611 25.9297 19.6284 26.9104 21.0163 26.9104C22.4049 26.9104 23.5717 25.9299 23.8589 24.625H33.375C33.7202 24.625 34 24.3452 34 24C34 23.6548 33.7202 23.375 33.375 23.375ZM22.6767 23.9983L22.6766 24.0051C22.6739 24.9178 21.9291 25.6604 21.0163 25.6604C20.1048 25.6604 19.3599 24.9188 19.356 24.0065L19.3559 23.9974C19.3572 23.083 20.1016 22.3396 21.0163 22.3396C21.9306 22.3396 22.6746 23.0823 22.6767 23.9961L22.6767 23.9983Z" fill="white"/>
</g>
<defs>
<clipPath id="clip0_3336_2421">
<rect width="20" height="20" fill="white" transform="translate(14 14)"/>
</clipPath>
</defs>
</svg>
