<svg width="58" height="20" viewBox="0 0 58 20" fill="none" xmlns="http://www.w3.org/2000/svg">
    <path d="M8.96889 9.7128H11.4631V13.2368C10.6849 13.4883 9.70224 13.6263 8.68076 13.6263C4.54095 13.6263 2.10783 10.0602 2.10783 6.5775C2.10783 3.1617 4.30863 0.76572 7.37903 0.76572C9.32194 0.76572 10.4525 1.42782 11.4639 2.35011V3.49985L13.3603 1.59218C12.1608 0.775836 10.4239 0 7.94121 0C2.49115 0 0 3.92212 0 7.14537C0 11.7333 3.32208 14.4972 7.49682 14.4972C9.52103 14.4972 11.3183 14.1863 13.3944 13.6052V9.9644C13.3944 9.77823 13.4758 9.65049 13.5973 9.53832L14.2525 8.87932H9.80368L8.96889 9.7128Z" fill="url(#paint0_linear_3336_3789)"/>
    <path d="M20.1432 4.92383C17.0062 4.92383 15.0625 7.22962 15.0625 9.6771C15.0625 11.7896 16.6284 14.2978 19.8009 14.2978C22.8527 14.2978 24.7251 11.9875 24.7251 9.49717C24.7251 7.17744 22.8953 4.92468 20.1432 4.92468V4.92383ZM19.6227 5.59608C21.8344 5.59608 22.8193 8.49457 22.8193 10.5619C22.8193 13.6365 20.5264 13.6972 20.2523 13.6972C19.203 13.6972 18.4697 13.0593 17.9207 12.2226C17.4375 11.4516 16.9651 10.019 16.9651 8.61921C16.9651 7.22488 17.4188 6.54407 18.1329 6.0432C18.7168 5.66774 19.2635 5.59608 19.6219 5.59608H19.6227Z" fill="url(#paint1_linear_3336_3789)"/>
    <path d="M40.6484 4.9231C37.9086 4.9231 36.4264 6.66797 36.4264 8.61614C36.4264 10.0993 37.4826 11.7725 39.6617 11.7725H40.213C40.213 11.7725 40.0629 12.1394 40.0621 12.4938C40.0621 13.0165 40.2487 13.3101 40.6451 13.7619C36.8956 13.9917 35.3887 15.513 35.3887 17.1481C35.3887 18.5799 36.7516 19.989 39.616 19.989C43.007 19.989 44.7633 18.0952 44.7633 16.2367C44.7633 14.9265 44.1143 14.2083 42.4711 12.9698C41.9879 12.592 41.8942 12.3514 41.8942 12.0686C41.8942 11.6636 42.135 11.3955 42.2233 11.2943C42.3789 11.1292 42.6484 10.9407 42.7491 10.8503C43.3012 10.3798 44.081 9.68353 44.081 8.29379C44.081 7.34035 43.6868 6.52012 42.7886 5.75207H43.8851L44.7091 4.92327H40.6484V4.9231ZM39.8926 5.54314C40.3898 5.54314 40.8047 5.71998 41.243 6.08687C41.7293 6.52776 42.5061 7.71255 42.5061 9.17854C42.5061 10.7606 41.2841 11.1937 40.6228 11.1937C40.2991 11.1937 39.9113 11.1026 39.5829 10.8767C38.8534 10.4008 38.1293 9.13413 38.1293 7.62685C38.1293 6.26679 38.9346 5.54314 39.8926 5.54314ZM40.9775 14.3625C41.1865 14.3625 41.3368 14.3797 41.3368 14.3797C41.3368 14.3797 41.8301 14.7341 42.1747 14.9989C42.9769 15.6369 43.4771 16.1245 43.4771 16.9931C43.4771 18.1873 42.3759 19.1236 40.5925 19.1236C38.635 19.1236 37.1388 18.2067 37.1388 16.7096C37.1388 15.4695 38.1641 14.4022 40.9775 14.3625Z" fill="url(#paint2_linear_3336_3789)"/>
    <path d="M45.302 14.0245H49.0631L49.6361 13.4481L48.5574 13.3126C48.267 13.2767 48.0944 13.0243 48.0944 12.7798V1.35169C48.0944 1.12657 48.1982 1.01128 48.274 0.937982L48.9524 0.255615H45.7449L44.9102 1.09533H46.1569V12.9331C46.1569 13.1014 46.1042 13.2159 45.9912 13.3335L45.302 14.0245Z" fill="url(#paint3_linear_3336_3789)"/>
    <path d="M54.1592 4.92383C52.0591 4.92383 49.8281 6.53393 49.8281 9.42464C49.8281 11.8121 51.4288 14.2978 54.4194 14.2978C55.1651 14.2978 55.7792 14.2013 56.3546 13.9357C56.9717 13.6498 57.5657 13.1855 57.9993 12.6021C57.1808 13.0173 56.5133 13.2899 55.6266 13.2899C53.9415 13.2899 52.3169 12.0669 51.7485 9.81887L57.7011 7.39865C57.3573 6.16556 56.3878 4.92383 54.16 4.92383H54.1592ZM53.7704 5.58516C54.8972 5.58516 55.7118 6.51758 55.7118 7.24746C55.7118 7.48348 55.5647 7.60813 55.2734 7.72341L51.6145 9.21199C51.6145 9.21199 51.5155 8.74852 51.5155 8.24765C51.5155 6.1468 53.0255 5.58516 53.7704 5.58516Z" fill="url(#paint4_linear_3336_3789)"/>
    <path d="M30.7877 4.92383C27.6507 4.92383 25.707 7.22962 25.707 9.6771C25.707 11.7896 27.2729 14.2978 30.4454 14.2978C33.4973 14.2978 35.3697 11.9875 35.3697 9.49717C35.3697 7.17744 33.5398 4.92468 30.7877 4.92468V4.92383ZM30.2673 5.59608C32.479 5.59608 33.4639 8.49457 33.4639 10.5619C33.4639 13.6365 31.171 13.6972 30.8968 13.6972C29.8475 13.6972 29.1142 13.0593 28.5653 12.2226C28.0821 11.4516 27.6097 10.019 27.6097 8.61921C27.6097 7.22488 28.0634 6.54407 28.7774 6.0432C29.3613 5.66774 29.908 5.59608 30.2665 5.59608H30.2673Z" fill="url(#paint5_linear_3336_3789)"/>
    <defs>
        <linearGradient id="paint0_linear_3336_3789" x1="7.09079" y1="-0.0410375" x2="7.09079" y2="14.4964" gradientUnits="userSpaceOnUse">
            <stop stop-color="#196EEF"/>
            <stop offset="0.5" stop-color="#186DEE"/>
            <stop offset="1" stop-color="#1065E7"/>
        </linearGradient>
        <linearGradient id="paint1_linear_3336_3789" x1="19.8587" y1="4.90162" x2="19.8587" y2="14.3018" gradientUnits="userSpaceOnUse">
            <stop stop-color="#DE5744"/>
            <stop offset="0.5" stop-color="#DB4632"/>
            <stop offset="1" stop-color="#D13D29"/>
        </linearGradient>
        <linearGradient id="paint2_linear_3336_3789" x1="40.0415" y1="4.90167" x2="40.0415" y2="19.9947" gradientUnits="userSpaceOnUse">
            <stop stop-color="#1A6FEF"/>
            <stop offset="0.25" stop-color="#1E72EF"/>
            <stop offset="0.5" stop-color="#166BEC"/>
            <stop offset="0.75" stop-color="#1267E9"/>
            <stop offset="1" stop-color="#1063E5" stop-opacity="0.87"/>
        </linearGradient>
        <linearGradient id="paint3_linear_3336_3789" x1="47.2388" y1="0.223205" x2="47.2388" y2="14.0377" gradientUnits="userSpaceOnUse">
            <stop stop-color="#0AA561"/>
            <stop offset="0.5" stop-color="#009B58"/>
            <stop offset="1" stop-color="#00914B"/>
        </linearGradient>
        <linearGradient id="paint4_linear_3336_3789" x1="53.8796" y1="4.90162" x2="53.8796" y2="14.2759" gradientUnits="userSpaceOnUse">
            <stop stop-color="#DE5644"/>
            <stop offset="0.5" stop-color="#DA4531"/>
            <stop offset="1" stop-color="#CE3A28"/>
        </linearGradient>
        <linearGradient id="paint5_linear_3336_3789" x1="30.5035" y1="4.92204" x2="30.5035" y2="14.2831" gradientUnits="userSpaceOnUse">
            <stop stop-color="#FFC01A"/>
            <stop offset="0.5" stop-color="#FFBA03"/>
            <stop offset="1" stop-color="#FFB300"/>
        </linearGradient>
    </defs>
</svg>
