<svg width="20" height="20" viewBox="0 0 20 20" fill="none" xmlns="http://www.w3.org/2000/svg">
    <path d="M4.47648 19.1664C4.25734 19.1664 4.03975 19.0981 3.85404 18.9638C3.68514 18.8415 3.5559 18.6723 3.48241 18.4772C3.40891 18.2821 3.3944 18.0697 3.44067 17.8664L4.72735 12.1986L0.363799 8.37201C0.206864 8.23508 0.0936548 8.05502 0.038257 7.85425C-0.0171408 7.65347 -0.012282 7.44084 0.052229 7.2428C0.116344 7.04487 0.237141 6.87011 0.399643 6.74019C0.562146 6.61027 0.759206 6.5309 0.966393 6.51192L6.73986 5.98773L9.02253 0.645915C9.19078 0.253444 9.57407 0 9.99998 0C10.4259 0 10.8092 0.253444 10.9775 0.645016L13.2601 5.98773L19.0327 6.51185C19.4578 6.55013 19.816 6.83779 19.9477 7.24276C20.0795 7.64777 19.9577 8.09196 19.6369 8.37197L15.2734 12.1979L16.5601 17.8655C16.6544 18.2822 16.4926 18.7131 16.1469 18.9631C15.8018 19.213 15.3418 19.2322 14.9785 19.0138L9.99998 16.0388L5.02153 19.0155C4.85321 19.1155 4.66567 19.1664 4.47648 19.1664ZM9.99998 14.7572C10.1892 14.7572 10.3766 14.808 10.545 14.9079L15.2435 17.7181L14.0292 12.3686C13.9867 12.1817 13.9955 11.9867 14.0548 11.8043C14.1141 11.622 14.2216 11.4591 14.3659 11.3328L18.4861 7.71945L13.035 7.22448C12.8432 7.20731 12.6596 7.13828 12.504 7.02479C12.3484 6.91129 12.2266 6.75762 12.1517 6.58021L9.99998 1.53922L7.84571 6.58095C7.69402 6.94014 7.35648 7.1869 6.96494 7.22276L1.51313 7.71777L5.63315 11.3311C5.92824 11.5895 6.0573 11.9862 5.96988 12.3679L4.75649 17.7171L9.45493 14.9079C9.62325 14.808 9.8108 14.7572 9.99998 14.7572ZM6.69576 6.09101C6.69576 6.09101 6.69576 6.09191 6.69486 6.09269L6.69576 6.09101ZM13.3026 6.08855L13.3035 6.09023C13.3035 6.08933 13.3035 6.08933 13.3025 6.08855H13.3026Z" fill="#019877"/>
</svg>
