<svg width="38" height="38" viewBox="0 0 38 38" fill="none" xmlns="http://www.w3.org/2000/svg">
    <path d="M18.7811 3.13049C10.1567 3.13049 3.12891 10.1583 3.12891 18.7827C3.12891 27.407 10.1567 34.4348 18.7811 34.4348C27.4054 34.4348 34.4333 27.407 34.4333 18.7827C34.4333 10.1583 27.4054 3.13049 18.7811 3.13049ZM26.2628 15.1827L17.388 24.0574C17.1689 24.2766 16.8715 24.4018 16.5585 24.4018C16.2454 24.4018 15.948 24.2766 15.7289 24.0574L11.2993 19.6279C10.8454 19.174 10.8454 18.4227 11.2993 17.9688C11.7533 17.5148 12.5046 17.5148 12.9585 17.9688L16.5585 21.5688L24.6037 13.5235C25.0576 13.0696 25.8089 13.0696 26.2628 13.5235C26.7167 13.9775 26.7167 14.7131 26.2628 15.1827Z" fill="#7DE487"/>
</svg>
