<svg width="30" height="20" viewBox="0 0 30 20" fill="none" xmlns="http://www.w3.org/2000/svg">
    <g clip-path="url(#clip0_3336_3796)">
        <path d="M3.24325 13.1937C3.24325 14.3455 3.4946 15.2262 3.82312 15.7602C3.99819 16.0642 4.2503 16.3163 4.55382 16.4909C4.85735 16.6654 5.20148 16.7562 5.55126 16.7539C6.39604 16.7539 7.16885 16.5445 8.65816 14.4754C9.85127 12.8178 11.2571 10.4963 12.2041 9.03037L13.8061 6.55916C14.9189 4.84293 16.2048 2.93508 17.6837 1.6377C18.8883 0.586387 20.1888 0 21.4977 0C23.6951 0 25.7883 1.27853 27.3903 3.67644C29.1434 6.30262 29.9976 9.61047 29.9976 13.0241C29.9976 15.0534 29.5992 16.5445 28.9213 17.7225C28.2674 18.8618 26.9866 20 24.8392 20V16.7539C26.6779 16.7539 27.1337 15.0576 27.1337 13.1162C27.1337 10.3497 26.4912 7.27958 25.076 5.08586C24.0716 3.52984 22.7701 2.57906 21.3381 2.57906C19.7894 2.57906 18.5431 3.75183 17.1424 5.84293C16.3978 6.95393 15.6333 8.30785 14.775 9.8356L13.8301 11.511C11.9319 14.8901 11.4511 15.6597 10.5021 16.9298C8.84171 19.1623 7.42124 20 5.55126 20C3.33294 20 1.9302 19.0356 1.06665 17.5822C0.352245 16.3979 0.00390625 14.844 0.00390625 13.0733L3.24325 13.1937Z" fill="#0081FB"/>
        <path d="M2.55664 3.90576C4.04178 1.60733 6.185 0 8.64319 0C10.0668 0 11.4821 0.418848 12.9599 1.63455C14.5764 2.95916 16.2973 5.14031 18.4488 8.73508L19.2196 10.0251C21.0802 13.1372 22.1398 14.7372 22.7582 15.4932C23.555 16.4628 24.114 16.7497 24.8378 16.7497C26.6765 16.7497 27.1323 15.0534 27.1323 13.112L29.9899 13.022C29.9899 15.0513 29.5915 16.5424 28.9136 17.7204C28.266 18.8618 26.9852 20 24.8378 20C23.5029 20 22.3202 19.7089 21.0124 18.4702C20.007 17.5194 18.8316 15.8304 17.9274 14.312L15.2376 9.80105C13.8881 7.53717 12.6501 5.84921 11.9336 5.089C11.1619 4.26283 10.1721 3.27016 8.59104 3.27016C7.31137 3.27016 6.22463 4.17173 5.3152 5.55079L2.55664 3.90576Z" fill="url(#paint0_linear_3336_3796)"/>
        <path d="M8.59245 3.27016C7.31277 3.27016 6.22604 4.17173 5.3166 5.55078C4.03067 7.49948 3.24325 10.4021 3.24325 13.1937C3.24325 14.3455 3.4946 15.2262 3.82312 15.7602L1.06144 17.5822C0.352246 16.3979 0.00390625 14.844 0.00390625 13.0733C0.00390625 9.8534 0.884141 6.49738 2.55805 3.90576C4.04318 1.60733 6.18641 0 8.6446 0L8.59245 3.27016Z" fill="url(#paint1_linear_3336_3796)"/>
    </g>
    <defs>
        <linearGradient id="paint0_linear_3336_3796" x1="6.50414" y1="9.48168" x2="27.1546" y2="10.5205" gradientUnits="userSpaceOnUse">
            <stop stop-color="#0064E1"/>
            <stop offset="0.4" stop-color="#0064E1"/>
            <stop offset="0.83" stop-color="#0073EE"/>
            <stop offset="1" stop-color="#0082FB"/>
        </linearGradient>
        <linearGradient id="paint1_linear_3336_3796" x1="4.32373" y1="14.555" x2="4.32373" y2="6.91099" gradientUnits="userSpaceOnUse">
            <stop stop-color="#0082FB"/>
            <stop offset="1" stop-color="#0064E0"/>
        </linearGradient>
        <clipPath id="clip0_3336_3796">
            <rect width="30" height="20" fill="white"/>
        </clipPath>
    </defs>
</svg>
