<svg width="94" height="20" viewBox="0 0 94 20" fill="none" xmlns="http://www.w3.org/2000/svg">
    <g clip-path="url(#clip0_3336_3803)">
        <path d="M33.1873 11.5193L32.627 13.1007H32.5803C32.4869 12.7441 32.3157 12.2015 32.0355 11.5503L29.0316 4.03094H26.0898V16.0154H28.0354V8.62009C28.0354 8.15497 28.0354 7.62784 28.0199 6.97668C28.0043 6.65109 27.9732 6.40303 27.9576 6.21699H28.0043C28.0977 6.6821 28.2066 7.02319 28.2845 7.24024L31.8955 15.9844H33.2651L36.845 7.16272C36.9228 6.96117 37.0007 6.55807 37.0785 6.21699H37.1252C37.0785 7.10071 37.0474 7.89141 37.0318 8.37203V15.9689H39.1019V3.99993H36.2691L33.1873 11.5193ZM41.063 7.37978H43.0864V15.9689H41.063V7.37978ZM42.0903 3.75187C41.7479 3.75187 41.4677 3.8759 41.2342 4.09295C41.0008 4.31001 40.8763 4.58908 40.8763 4.93016C40.8763 5.25575 41.0008 5.53482 41.2342 5.75187C41.4677 5.96892 41.7479 6.07745 42.0903 6.07745C42.4327 6.07745 42.7285 5.95342 42.9464 5.75187C43.1798 5.53482 43.3043 5.25575 43.3043 4.93016C43.3043 4.60458 43.1798 4.32551 42.9464 4.09295C42.744 3.8759 42.4483 3.75187 42.0903 3.75187ZM50.2617 7.30226C49.8882 7.22474 49.4991 7.17823 49.1255 7.17823C48.2072 7.17823 47.3667 7.37978 46.6663 7.78288C45.9659 8.18598 45.4056 8.74412 45.0476 9.44179C44.674 10.155 44.4873 10.9767 44.4873 11.9224C44.4873 12.7441 44.674 13.4728 45.032 14.1395C45.39 14.7906 45.8881 15.3178 46.5574 15.6744C47.1955 16.0309 47.9426 16.217 48.7831 16.217C49.7481 16.217 50.573 16.0154 51.2268 15.6433L51.2423 15.6278V13.7674L51.1645 13.8294C50.8688 14.0464 50.5263 14.2325 50.1839 14.341C49.8259 14.465 49.4991 14.5271 49.2189 14.5271C48.4096 14.5271 47.7714 14.2945 47.32 13.7829C46.8531 13.2868 46.6196 12.6046 46.6196 11.7519C46.6196 10.8681 46.8531 10.1705 47.3356 9.65885C47.8181 9.14722 48.4562 8.88365 49.2345 8.88365C49.8882 8.88365 50.5575 9.10071 51.1645 9.53482L51.2423 9.59683V7.62784L51.2268 7.61233C50.9622 7.50381 50.6664 7.37978 50.2617 7.30226ZM56.939 7.24024C56.4409 7.24024 55.974 7.39528 55.5693 7.72086C55.2269 7.99993 54.9934 8.40303 54.7911 8.88365H54.7755V7.37978H52.7521V15.9689H54.7755V11.5813C54.7755 10.8371 54.9311 10.217 55.2736 9.76737C55.616 9.30226 56.0518 9.0697 56.581 9.0697C56.7678 9.0697 56.9545 9.11621 57.188 9.14722C57.4059 9.20923 57.5616 9.27125 57.6705 9.34877L57.7483 9.41078V7.39528L57.7017 7.37978C57.5616 7.28675 57.2814 7.24024 56.939 7.24024ZM62.4489 7.19373C61.0325 7.19373 59.8963 7.61234 59.1025 8.43404C58.2931 9.25575 57.904 10.3875 57.904 11.8139C57.904 13.1472 58.3087 14.2325 59.0869 15.0232C59.8651 15.7984 60.9235 16.2015 62.2465 16.2015C63.6318 16.2015 64.7369 15.7829 65.5307 14.9457C66.34 14.1085 66.7291 12.9922 66.7291 11.6123C66.7291 10.248 66.3556 9.16272 65.5929 8.37203C64.8614 7.58133 63.7874 7.19373 62.4489 7.19373ZM64.0676 13.7984C63.694 14.279 63.1026 14.5116 62.371 14.5116C61.6395 14.5116 61.048 14.279 60.6278 13.7674C60.2076 13.2868 60.0052 12.5891 60.0052 11.7054C60.0052 10.7906 60.2231 10.093 60.6278 9.59683C61.048 9.10071 61.6239 8.85264 62.3555 8.85264C63.0715 8.85264 63.6318 9.0852 64.0365 9.56582C64.4411 10.0464 64.659 10.7441 64.659 11.6588C64.6279 12.5891 64.4567 13.3178 64.0676 13.7984ZM71.2429 10.9457C70.6047 10.6821 70.2001 10.4806 70.0133 10.31C69.8576 10.155 69.7798 9.93792 69.7798 9.65885C69.7798 9.42629 69.8732 9.19373 70.1067 9.03869C70.3401 8.88365 70.6047 8.80613 70.9939 8.80613C71.3363 8.80613 71.6943 8.86815 72.0367 8.96117C72.3791 9.05419 72.6904 9.19373 72.9394 9.37978L73.0173 9.44179V7.55032L72.9706 7.53482C72.7371 7.44179 72.4258 7.34877 72.0523 7.27125C71.6787 7.20923 71.3363 7.17823 71.0561 7.17823C70.0911 7.17823 69.2973 7.41078 68.6747 7.92241C68.0521 8.40303 67.7564 9.05419 67.7564 9.81388C67.7564 10.217 67.8187 10.5736 67.9588 10.8681C68.0988 11.1627 68.3012 11.4418 68.5813 11.6744C68.8615 11.8914 69.2662 12.1395 69.8265 12.372C70.2935 12.5736 70.6514 12.7286 70.8693 12.8526C71.0872 12.9767 71.2273 13.1162 71.3363 13.2247C71.4141 13.3488 71.4608 13.5038 71.4608 13.7054C71.4608 14.279 71.025 14.5581 70.1378 14.5581C69.7954 14.5581 69.4374 14.4961 69.0172 14.3565C68.5969 14.217 68.2078 14.0154 67.8809 13.7829L67.8031 13.7209V15.6899L67.8498 15.7054C68.1455 15.8449 68.5035 15.9379 68.9393 16.0464C69.3751 16.124 69.7643 16.186 70.1067 16.186C71.1495 16.186 72.0056 15.9534 72.6126 15.4418C73.2352 14.9457 73.562 14.31 73.562 13.4883C73.562 12.9147 73.4064 12.403 73.064 12.0154C72.6126 11.6433 72.0523 11.2557 71.2429 10.9457ZM78.9007 7.19373C77.4843 7.19373 76.3481 7.61234 75.5543 8.43404C74.7605 9.25575 74.3558 10.3875 74.3558 11.8139C74.3558 13.1472 74.7605 14.2325 75.5387 15.0232C76.317 15.7984 77.3754 16.2015 78.6984 16.2015C80.0836 16.2015 81.1887 15.7829 81.9825 14.9457C82.7919 14.1085 83.181 12.9922 83.181 11.6123C83.181 10.248 82.8074 9.16272 82.0448 8.37203C81.3132 7.58133 80.2393 7.19373 78.9007 7.19373ZM80.5039 13.7984C80.1303 14.279 79.5389 14.5116 78.8073 14.5116C78.0602 14.5116 77.4843 14.279 77.0641 13.7674C76.6438 13.2868 76.4415 12.5891 76.4415 11.7054C76.4415 10.7906 76.6594 10.093 77.0641 9.59683C77.4843 9.10071 78.0602 8.85264 78.7918 8.85264C79.4922 8.85264 80.0681 9.0852 80.4727 9.56582C80.8774 10.0464 81.0953 10.7441 81.0953 11.6588C81.0953 12.5891 80.893 13.3178 80.5039 13.7984ZM93.9984 9.03869V7.37978H91.9594V4.83714L91.8972 4.85264L89.9672 5.42629L89.9205 5.44179V7.37978H86.8698V6.29451C86.8698 5.79838 86.9943 5.41078 87.2122 5.16272C87.4301 4.91466 87.757 4.79063 88.1617 4.79063C88.4418 4.79063 88.7376 4.85265 89.0644 4.99218L89.1423 5.03869V3.28675L89.0956 3.27125C88.8154 3.17823 88.4418 3.11621 87.9593 3.11621C87.3523 3.11621 86.8231 3.25575 86.3406 3.4883C85.8581 3.75187 85.5001 4.10846 85.2355 4.58908C84.9709 5.0542 84.8308 5.58133 84.8308 6.18598V7.37978H83.4145V9.02319H84.8308V15.9689H86.8698V9.03869H89.9205V13.4573C89.9205 15.2713 90.7765 16.186 92.4886 16.186C92.7688 16.186 93.0645 16.1395 93.3447 16.093C93.6404 16.0309 93.8583 15.9534 93.9828 15.8914L93.9984 15.8759V14.217L93.9206 14.279C93.7961 14.3565 93.6871 14.4185 93.5004 14.465C93.3447 14.5116 93.2046 14.5271 93.0957 14.5271C92.691 14.5271 92.4108 14.434 92.2085 14.2015C92.0217 13.9844 91.9283 13.6278 91.9283 13.1007V9.03869H93.9984Z" fill="#737373"/>
        <path d="M0.00390625 0H9.54504V9.50388H0.00390625V0Z" fill="#F25022"/>
        <path d="M10.5391 0H20.0802V9.50388H10.5391V0Z" fill="#7FBA00"/>
        <path d="M0.00195312 10.4961H9.54308V20H0.00195312V10.4961Z" fill="#00A4EF"/>
        <path d="M10.5391 10.4961H20.0802V20H10.5391V10.4961Z" fill="#FFB900"/>
    </g>
    <defs>
        <clipPath id="clip0_3336_3803">
            <rect width="94" height="20" fill="white"/>
        </clipPath>
    </defs>
</svg>
