<svg width="48" height="48" viewBox="0 0 48 48" fill="none" xmlns="http://www.w3.org/2000/svg">
<rect width="48" height="48" rx="12" fill="#191919"/>
<path d="M33.844 31.922H33.2348C32.0222 29.8063 31.383 27.4347 31.383 25.0348V21.5117C31.383 18.6282 29.4557 16.1549 26.7345 15.1438V13.5389C26.7345 12.1389 25.5079 10.9998 24.0001 10.9998C22.4924 10.9998 21.2657 12.1389 21.2657 13.5389V15.1438C18.5446 16.1549 16.6172 18.6281 16.6172 21.5117V25.0348C16.6172 27.4347 15.9781 29.8062 14.7655 31.922H14.1563C13.7032 31.922 13.3359 32.263 13.3359 32.6837C13.3359 33.1044 13.7032 33.4454 14.1563 33.4454H19.4256C19.8143 35.4633 21.7169 37.0002 24.0001 37.0002C26.2834 37.0002 28.1859 35.4633 28.5747 33.4454H33.844C34.2971 33.4454 34.6643 33.1044 34.6643 32.6837C34.6643 32.263 34.2971 31.922 33.844 31.922ZM22.9064 13.5389C22.9064 12.9789 23.397 12.5233 24.0001 12.5233C24.6032 12.5233 25.0939 12.9789 25.0939 13.5389V14.7315C24.7369 14.682 24.3717 14.6561 24.0001 14.6561C23.6285 14.6561 23.2634 14.682 22.9064 14.7315V13.5389ZM18.2579 21.5117C18.2579 18.5716 20.8339 16.1796 24.0001 16.1796C27.1664 16.1796 29.7424 18.5716 29.7424 21.5117V25.0348C29.7424 26.1576 29.8692 27.2748 30.117 28.3673H17.8833C18.1311 27.2748 18.2579 26.1576 18.2579 25.0348V21.5117ZM17.4534 29.8907H30.5469C30.7817 30.5838 31.0665 31.2627 31.4002 31.922H16.6001C16.9338 31.2627 17.2186 30.5838 17.4534 29.8907ZM24.0001 35.4767C22.626 35.4767 21.465 34.6163 21.1069 33.4454H26.8933C26.5353 34.6163 25.3743 35.4767 24.0001 35.4767Z" fill="white"/>
<path d="M36.3203 20.2297C36 19.9323 35.4806 19.9323 35.1602 20.2297C34.8398 20.5272 34.8398 21.0095 35.1602 21.307C35.9334 22.025 36.3593 22.9814 36.3593 24.0001C36.3593 25.0188 35.9334 25.9752 35.1602 26.6932C34.8398 26.9907 34.8398 27.473 35.1602 27.7704C35.3204 27.9192 35.5303 27.9936 35.7402 27.9936C35.9501 27.9936 36.1601 27.9192 36.3202 27.7704C37.4034 26.7647 37.9999 25.4257 37.9999 24.0001C37.9999 22.5745 37.4034 21.2355 36.3203 20.2297Z" fill="white"/>
<path d="M32.8399 22.3841C32.5195 22.6816 32.5195 23.1639 32.8399 23.4614C32.9948 23.6052 33.0802 23.7965 33.0802 24C33.0802 24.2035 32.9948 24.3947 32.8399 24.5386C32.5195 24.8361 32.5195 25.3184 32.8399 25.6159C33.0001 25.7646 33.21 25.839 33.4199 25.839C33.6298 25.839 33.8398 25.7647 33.9999 25.6159C34.9595 24.7249 34.9595 23.2751 33.9999 22.3841C33.6797 22.0866 33.1602 22.0866 32.8399 22.3841Z" fill="white"/>
<path d="M12.8397 20.2297C12.5194 19.9322 12.0001 19.9322 11.6796 20.2297C10.5965 21.2354 10 22.5744 10 24C10 25.4256 10.5965 26.7646 11.6796 27.7704C11.8398 27.9191 12.0498 27.9935 12.2597 27.9935C12.4696 27.9935 12.6796 27.9191 12.8397 27.7704C13.16 27.4729 13.16 26.9906 12.8397 26.6931C12.0665 25.9751 11.6406 25.0187 11.6406 24C11.6406 22.9813 12.0665 22.0249 12.8397 21.3069C13.1601 21.0094 13.1601 20.5271 12.8397 20.2297Z" fill="white"/>
<path d="M14.581 25.839C14.7909 25.839 15.0009 25.7647 15.161 25.6159C15.4814 25.3184 15.4814 24.8361 15.161 24.5386C15.0061 24.3948 14.9207 24.2035 14.9207 24C14.9207 23.7965 15.0061 23.6053 15.161 23.4614C15.4814 23.1639 15.4814 22.6816 15.161 22.3841C14.8407 22.0866 14.3213 22.0866 14.0009 22.3841C13.0414 23.2751 13.0414 24.7249 14.0009 25.6159C14.1611 25.7647 14.371 25.839 14.581 25.839Z" fill="white"/>
</svg>
