<svg width="19" height="16" viewBox="0 0 19 16" fill="none" xmlns="http://www.w3.org/2000/svg">
    <path d="M10.8571 0C8.69752 0 6.62636 0.842854 5.09927 2.34314C3.57219 3.84343 2.71429 5.87826 2.71429 8H0L3.51952 11.4578L3.58286 11.5822L7.2381 8H4.52381C4.52381 4.56 7.35571 1.77778 10.8571 1.77778C14.3586 1.77778 17.1905 4.56 17.1905 8C17.1905 11.44 14.3586 14.2222 10.8571 14.2222C9.11095 14.2222 7.52762 13.52 6.38762 12.3911L5.10286 13.6533C5.85678 14.3984 6.75344 14.9894 7.74109 15.3921C8.72873 15.7949 9.78779 16.0015 10.8571 16C13.0168 16 15.0879 15.1571 16.615 13.6568C18.1421 12.1566 19 10.1217 19 8C19 5.87826 18.1421 3.84343 16.615 2.34314C15.0879 0.842854 13.0168 3.16163e-08 10.8571 0ZM9.95238 4.44444V8.88888L13.8248 11.1467L14.4762 10.0711L11.3095 8.22222V4.44444H9.95238Z" fill="white"/>
</svg>
