<svg width="20" height="20" viewBox="0 0 20 20" fill="none" xmlns="http://www.w3.org/2000/svg">
    <path d="M15.6846 2.90039C16.7855 2.90045 17.6432 3.187 18.2256 3.76074C18.8083 4.33482 19.0996 5.18076 19.0996 6.2666V13.7334C19.0996 14.8192 18.8083 15.6652 18.2256 16.2393C17.6432 16.813 16.7855 17.0995 15.6846 17.0996H4.31543C3.21447 17.0995 2.35682 16.813 1.77441 16.2393C1.1917 15.6652 0.900402 14.8192 0.900391 13.7334V6.2666C0.900402 5.18076 1.1917 4.33482 1.77441 3.76074C2.35682 3.187 3.21447 2.90045 4.31543 2.90039H15.6846ZM2.04785 13.7334C2.04786 14.5273 2.22765 15.0787 2.58789 15.4336C2.94841 15.7888 3.50885 15.9667 4.31543 15.9668H15.6846C16.4912 15.9667 17.0516 15.7888 17.4121 15.4336C17.7723 15.0787 17.9521 14.5273 17.9521 13.7334V8.7002H2.04785V13.7334ZM8.10547 12.2334C8.4206 12.2335 8.6786 12.4857 8.67871 12.7998C8.67871 13.114 8.42067 13.3661 8.10547 13.3662H5.2627C4.94762 13.366 4.68945 13.1139 4.68945 12.7998C4.68956 12.4858 4.94768 12.2336 5.2627 12.2334H8.10547ZM4.31543 4.0332C3.50885 4.03326 2.94841 4.21125 2.58789 4.56641C2.22765 4.92131 2.04786 5.47266 2.04785 6.2666V7.56641H17.9521V6.2666C17.9521 5.47266 17.7723 4.92131 17.4121 4.56641C17.0516 4.21125 16.4912 4.03326 15.6846 4.0332H4.31543Z" fill="white" stroke="white" stroke-width="0.2"/>
</svg>
