<svg width="24" height="24" viewBox="0 0 24 24" fill="none" xmlns="http://www.w3.org/2000/svg">
    <path d="M3 15.4004C3.33123 15.4004 3.59961 15.6688 3.59961 16V19.5C3.59961 19.8508 3.669 20.0674 3.80078 20.1992C3.93256 20.331 4.14918 20.4004 4.5 20.4004H8C8.33123 20.4004 8.59961 20.6688 8.59961 21C8.59961 21.3312 8.33123 21.5996 8 21.5996H4.5C3.8456 21.5996 3.31778 21.4115 2.95312 21.0469C2.58847 20.6822 2.40039 20.1544 2.40039 19.5V16C2.40039 15.6688 2.66877 15.4004 3 15.4004ZM21 15.4004C21.3312 15.4004 21.5996 15.6688 21.5996 16V19.5C21.5996 20.1544 21.4115 20.6822 21.0469 21.0469C20.6822 21.4115 20.1544 21.5996 19.5 21.5996H16C15.6688 21.5996 15.4004 21.3312 15.4004 21C15.4004 20.6688 15.6688 20.4004 16 20.4004H19.5C19.8508 20.4004 20.0674 20.331 20.1992 20.1992C20.331 20.0674 20.4004 19.8508 20.4004 19.5V16C20.4004 15.6688 20.6688 15.4004 21 15.4004ZM19 11.4004C19.3312 11.4004 19.5996 11.6688 19.5996 12C19.5996 12.3312 19.3312 12.5996 19 12.5996H17.5996V15.1201C17.5996 15.9054 17.3833 16.5288 16.9561 16.9561C16.5288 17.3833 15.9054 17.5996 15.1201 17.5996H8.87988C8.09458 17.5996 7.47115 17.3833 7.04395 16.9561C6.61674 16.5288 6.40041 15.9054 6.40039 15.1201V12.5996H5C4.66877 12.5996 4.40039 12.3312 4.40039 12C4.40039 11.6688 4.66877 11.4004 5 11.4004H19ZM7.59961 15.1201C7.59963 15.5995 7.69815 15.9117 7.89258 16.1064C8.0872 16.3012 8.39978 16.4004 8.87988 16.4004H15.1201C15.6002 16.4004 15.9128 16.3012 16.1074 16.1064C16.3018 15.9117 16.4004 15.5995 16.4004 15.1201V12.5996H7.59961V15.1201ZM15.1201 6.40039C15.9054 6.40041 16.5288 6.61674 16.9561 7.04395C17.3833 7.47115 17.5996 8.09458 17.5996 8.87988V9C17.5996 9.33123 17.3312 9.59961 17 9.59961C16.6688 9.59961 16.4004 9.33123 16.4004 9V8.87988C16.4004 8.40031 16.3012 8.08832 16.1064 7.89355C15.9117 7.69879 15.5997 7.59963 15.1201 7.59961H8.87988C8.39978 7.59963 8.0872 7.69882 7.89258 7.89355C7.69815 8.08832 7.59963 8.40051 7.59961 8.87988V9C7.59961 9.33123 7.33123 9.59961 7 9.59961C6.66877 9.59961 6.40039 9.33123 6.40039 9V8.87988C6.40041 8.09458 6.61674 7.47115 7.04395 7.04395C7.47115 6.61674 8.09458 6.40041 8.87988 6.40039H15.1201ZM8 2.40039C8.33123 2.40039 8.59961 2.66877 8.59961 3C8.59961 3.33123 8.33123 3.59961 8 3.59961H4.5C4.14918 3.59961 3.93256 3.669 3.80078 3.80078C3.669 3.93256 3.59961 4.14918 3.59961 4.5V8C3.59961 8.33123 3.33123 8.59961 3 8.59961C2.66877 8.59961 2.40039 8.33123 2.40039 8V4.5C2.40039 3.8456 2.58847 3.31778 2.95312 2.95312C3.31778 2.58847 3.8456 2.40039 4.5 2.40039H8ZM19.5 2.40039C20.1544 2.40039 20.6822 2.58847 21.0469 2.95312C21.4115 3.31778 21.5996 3.8456 21.5996 4.5V8C21.5996 8.33123 21.3312 8.59961 21 8.59961C20.6688 8.59961 20.4004 8.33123 20.4004 8V4.5C20.4004 4.14918 20.331 3.93256 20.1992 3.80078C20.0674 3.669 19.8508 3.59961 19.5 3.59961H16C15.6688 3.59961 15.4004 3.33123 15.4004 3C15.4004 2.66877 15.6688 2.40039 16 2.40039H19.5Z" fill="#777980" stroke="#777980" stroke-width="0.2"/>
</svg>
