<svg width="20" height="20" viewBox="0 0 20 20" fill="none" xmlns="http://www.w3.org/2000/svg">
<path d="M19.9477 7.24177C19.8836 7.04392 19.7628 6.86926 19.6003 6.73948C19.4378 6.6097 19.2407 6.53052 19.0336 6.51176L13.2601 5.98761L10.9785 0.645715C10.81 0.253247 10.4267 0 10.0001 0C9.57341 0 9.18996 0.253247 9.02258 0.645715L6.7409 5.98761L0.966574 6.51176C0.543247 6.55082 0.184803 6.83754 0.0523786 7.24177C-0.0121484 7.43979 -0.0171677 7.65239 0.0379424 7.85324C0.0930526 8.05408 0.205871 8.23435 0.362423 8.37171L4.72668 12.1985L3.4399 17.8661C3.34576 18.2828 3.50748 18.7137 3.85327 18.9637C4.03437 19.0954 4.25262 19.1663 4.4766 19.1662C4.66858 19.1662 4.85697 19.1141 5.02165 19.0154L10.0001 16.0386L14.9776 19.0154C15.1561 19.1222 15.3621 19.1743 15.57 19.1651C15.7779 19.1559 15.9785 19.0858 16.1469 18.9637C16.4926 18.7137 16.6544 18.2828 16.5602 17.8661L15.2734 12.1985L19.6377 8.37175C19.7943 8.2344 19.9071 8.05414 19.9622 7.85329C20.0173 7.65243 20.0123 7.43983 19.9477 7.24181V7.24177Z" fill="#019877"/>
</svg>
