<svg width="20" height="20" viewBox="0 0 20 20" fill="none" xmlns="http://www.w3.org/2000/svg">
    <path d="M16.9731 6.00313H11.7375V2.26844C11.7388 1.9704 11.6807 1.67509 11.5665 1.39981C11.4522 1.12453 11.2842 0.874823 11.0722 0.665318C10.8622 0.4539 10.6123 0.286237 10.3371 0.172036C10.0619 0.0578339 9.76673 -0.000637903 9.46875 5.24851e-06H2.26875C1.01781 5.24851e-06 0 1.01782 0 2.26876V7.06876C0 8.31969 1.01781 9.33751 2.26875 9.33751H2.4V10.6688C2.4 11.1069 2.66156 11.4959 3.06594 11.6597C3.19625 11.7122 3.33156 11.7378 3.46563 11.7378C3.74563 11.7378 4.01844 11.6269 4.21812 11.4197L5.7425 9.90376V14.3641C5.7425 15.8094 6.91844 16.9853 8.36375 16.9853H12.1734L14.6994 19.4975C14.862 19.6662 15.0714 19.7823 15.3006 19.8308C15.5298 19.8794 15.7683 19.8582 15.9853 19.77C16.2045 19.6815 16.3921 19.5293 16.5238 19.333C16.6555 19.1367 16.7252 18.9054 16.7241 18.6691V16.9853H16.9728C18.4181 16.9853 19.5941 15.8094 19.5941 14.3641V8.62438C19.5944 7.17907 18.4184 6.00313 16.9731 6.00313ZM5.74469 8.57969L3.55062 10.7613C3.5125 10.8009 3.46781 10.8113 3.4175 10.7903C3.39281 10.7813 3.37168 10.7646 3.35727 10.7427C3.34285 10.7207 3.33592 10.6947 3.3375 10.6684V8.86844C3.3375 8.74412 3.28811 8.62489 3.20021 8.53699C3.1123 8.44908 2.99307 8.39969 2.86875 8.39969H2.26875C1.91581 8.39928 1.57744 8.25889 1.32787 8.00932C1.0783 7.75975 0.937914 7.42139 0.9375 7.06844V2.26844C0.937914 1.9155 1.0783 1.57713 1.32787 1.32756C1.57744 1.078 1.91581 0.937606 2.26875 0.937193H9.46875C9.82312 0.937193 10.1572 1.07594 10.4109 1.32969C10.535 1.45239 10.6333 1.59863 10.7002 1.75983C10.767 1.92103 10.8009 2.09395 10.8 2.26844V6.00313H8.36375C8.01948 6.00247 7.6785 6.07007 7.36053 6.20202C7.04255 6.33398 6.7539 6.52766 6.51125 6.77188C6.02945 7.25125 5.75431 7.9001 5.74469 8.57969ZM18.6569 14.3638C18.6564 14.8102 18.4788 15.2381 18.1632 15.5538C17.8475 15.8695 17.4195 16.047 16.9731 16.0475H16.2556C16.1313 16.0475 16.0121 16.0969 15.9242 16.1848C15.8363 16.2727 15.7869 16.3919 15.7869 16.5163V18.6688C15.7887 18.7186 15.7749 18.7677 15.7475 18.8094C15.72 18.851 15.6803 18.883 15.6337 18.9009C15.5883 18.9197 15.5382 18.9239 15.4903 18.9127C15.4425 18.9016 15.3993 18.8757 15.3669 18.8388L12.6978 16.1841C12.61 16.0967 12.4911 16.0476 12.3672 16.0475H8.36375C7.91734 16.047 7.48936 15.8695 7.17371 15.5538C6.85805 15.2381 6.6805 14.8102 6.68 14.3638V8.62438C6.68 8.17563 6.85563 7.75344 7.17406 7.43501C7.32982 7.27803 7.51517 7.15351 7.71938 7.06865C7.92359 6.98379 8.14261 6.94028 8.36375 6.94063H16.9731C17.4195 6.94113 17.8475 7.11868 18.1632 7.43434C18.4788 7.74999 18.6564 8.17797 18.6569 8.62438V14.3638Z" fill="white"/>
    <path d="M9.76578 10.8101C9.38453 10.8101 9.07422 11.1207 9.07422 11.5016C9.07422 11.8826 9.38484 12.1932 9.76578 12.1932C10.1473 12.1932 10.458 11.8826 10.458 11.5016C10.458 11.1207 10.1473 10.8101 9.76578 10.8101ZM12.6673 10.8101C12.2861 10.8101 11.9758 11.1207 11.9758 11.5016C11.9758 11.8826 12.2864 12.1932 12.6673 12.1932C13.0489 12.1932 13.3595 11.8826 13.3595 11.5016C13.3595 11.1207 13.0492 10.8101 12.6673 10.8101ZM15.5692 10.8101C15.188 10.8101 14.8777 11.1207 14.8777 11.5016C14.8777 11.8826 15.1883 12.1932 15.5692 12.1932C15.9508 12.1932 16.2614 11.8826 16.2614 11.5016C16.2614 11.1207 15.9508 10.8101 15.5692 10.8101Z" fill="white"/>
</svg>
