<svg width="21" height="20" viewBox="0 0 21 20" fill="none" xmlns="http://www.w3.org/2000/svg">
    <path d="M10.0432 19.9999L12.8533 4.19698C15.5316 4.19698 16.3764 4.49067 16.4985 5.68944C16.4985 5.68944 18.2953 5.01952 19.2014 3.65894C15.6651 2.02034 12.112 1.94644 12.112 1.94644L10.0386 4.47166L10.0433 4.47134L7.96991 1.94604C7.96991 1.94604 4.41667 2.02002 0.880859 3.65862C1.78628 5.0192 3.58373 5.68912 3.58373 5.68912C3.70642 4.49027 4.55022 4.19658 7.21063 4.19468L10.0432 19.9999Z" fill="#E82127"/>
    <path d="M10.0429 1.21659C12.9014 1.19473 16.1733 1.65879 19.5229 3.11862C19.9706 2.31287 20.0857 1.95676 20.0857 1.95676C16.4241 0.50818 12.9951 0.0124352 10.0425 0C7.08984 0.0124352 3.66104 0.50826 0 1.95676C0 1.95676 0.163325 2.3954 0.562372 3.11862C3.91126 1.65879 7.18386 1.19473 10.0425 1.21659H10.0429Z" fill="#E82127"/>
</svg>
