<svg width="20" height="19" viewBox="0 0 20 19" fill="none" xmlns="http://www.w3.org/2000/svg">
    <path d="M6.95267 8.88089C7.70624 8.88089 8.44289 8.62044 9.06946 8.13249C9.69602 7.64453 10.1844 6.95098 10.4727 6.13955C10.7611 5.32812 10.8365 4.43526 10.6894 3.57387C10.5423 2.71249 10.1794 1.92128 9.64651 1.3003C9.1136 0.679327 8.43466 0.256477 7.69555 0.0852293C6.95644 -0.0860185 6.19036 0.00202766 5.49418 0.338234C4.79801 0.674439 4.20301 1.2437 3.78444 1.97403C3.36588 2.70436 3.14253 3.56295 3.14267 4.44122C3.14373 5.61845 3.5455 6.7471 4.2598 7.57945C4.9741 8.41181 5.94258 8.87986 6.95267 8.88089ZM6.95267 1.55474C7.44251 1.55474 7.92134 1.72403 8.32863 2.0412C8.73592 2.35837 9.05336 2.80918 9.24081 3.33661C9.42826 3.86405 9.47731 4.44443 9.38175 5.00435C9.28618 5.56427 9.0503 6.07859 8.70393 6.48228C8.35757 6.88596 7.91627 7.16087 7.43584 7.27224C6.95541 7.38362 6.45744 7.32646 6.00489 7.10799C5.55234 6.88952 5.16553 6.51955 4.89339 6.04487C4.62125 5.57019 4.476 5.01212 4.476 4.44122C4.47653 3.67587 4.73763 2.94204 5.20198 2.40085C5.66633 1.85967 6.29598 1.55536 6.95267 1.55474ZM15 9.26938C15.5604 9.26938 16.1082 9.07571 16.5741 8.71287C17.0401 8.35002 17.4032 7.83429 17.6177 7.2309C17.8321 6.62751 17.8882 5.96355 17.7789 5.32299C17.6696 4.68244 17.3997 4.09405 17.0035 3.63223C16.6072 3.17041 16.1024 2.85591 15.5528 2.7285C15.0031 2.60108 14.4335 2.66648 13.9157 2.91641C13.398 3.16634 12.9555 3.58959 12.6442 4.13263C12.3328 4.67567 12.1667 5.31411 12.1667 5.96721C12.1675 6.84269 12.4663 7.68201 12.9975 8.30106C13.5287 8.92012 14.2488 9.26835 15 9.26938ZM15 4.21901C15.2967 4.21901 15.5867 4.32154 15.8334 4.51363C16.08 4.70573 16.2723 4.97876 16.3858 5.2982C16.4994 5.61765 16.5291 5.96915 16.4712 6.30827C16.4133 6.64739 16.2704 6.95889 16.0607 7.20338C15.8509 7.44787 15.5836 7.61437 15.2926 7.68183C15.0017 7.74928 14.7001 7.71466 14.426 7.58235C14.1519 7.45003 13.9176 7.22596 13.7528 6.93847C13.588 6.65097 13.5 6.31298 13.5 5.96721C13.5004 5.50369 13.6585 5.05926 13.9397 4.7315C14.221 4.40374 14.6023 4.21942 15 4.21901ZM15 10.1784C14.3273 10.1808 13.6619 10.341 13.0434 10.6493C12.425 10.9577 11.8661 11.4079 11.4 11.9733C10.3841 10.9892 9.14884 10.3627 7.83862 10.1671C6.52841 9.97139 5.19748 10.2146 4.00155 10.8684C2.80562 11.5221 1.79416 12.5592 1.08552 13.8584C0.376871 15.1576 0.000347246 16.6652 0 18.2047C0 18.4107 0.0702379 18.6084 0.195262 18.7541C0.320286 18.8998 0.489856 18.9816 0.666667 18.9816H13.24C13.4168 18.9816 13.5864 18.8998 13.7114 18.7541C13.8364 18.6084 13.9067 18.4107 13.9067 18.2047C13.9055 17.7278 13.8683 17.252 13.7953 16.7828H19.3333C19.5101 16.7828 19.6797 16.7009 19.8047 16.5552C19.9298 16.4095 20 16.2119 20 16.0058C19.9986 14.4608 19.4714 12.9795 18.534 11.8871C17.5966 10.7946 16.3256 10.1801 15 10.1784ZM1.37267 17.4277C1.52272 15.9382 2.10711 14.5539 3.02808 13.5065C3.94905 12.459 5.15072 11.812 6.43205 11.6735C7.71337 11.5351 8.99661 11.9138 10.0671 12.7461C11.1375 13.5784 11.9303 14.8139 12.3127 16.2459C12.4192 16.6305 12.4931 17.0263 12.5333 17.4277H1.37267ZM13.4073 15.2288C13.1465 14.4532 12.7842 13.7293 12.3333 13.0828C12.7967 12.5063 13.3883 12.0911 14.0422 11.8832C14.6961 11.6754 15.3866 11.6831 16.037 11.9056C16.6873 12.128 17.2719 12.5565 17.7257 13.1432C18.1796 13.7299 18.4847 14.4519 18.6073 15.2288H13.4073Z" fill="#019877"/>
</svg>
