<svg width="20" height="20" viewBox="0 0 20 20" fill="none" xmlns="http://www.w3.org/2000/svg">
    <path d="M9.92188 3.75C11.9401 3.75 13.3495 5.14072 13.3496 7.13379V12.8662C13.3495 14.8593 11.9401 16.25 9.92188 16.25H5.0957C3.07745 16.25 1.66811 14.8593 1.66797 12.8662V7.13379C1.66811 5.14072 3.07745 3.75 5.0957 3.75H9.92188ZM16.6328 5.73242C16.9986 5.5463 17.4282 5.56617 17.7773 5.78613C18.1263 6.00527 18.3349 6.3857 18.335 6.80176V13.1982C18.335 13.6153 18.1264 13.9957 17.7773 14.2148C17.5866 14.3341 17.3731 14.3945 17.1582 14.3945C16.979 14.3945 16.7993 14.353 16.6318 14.2676L15.3975 13.6445C14.941 13.4127 14.6583 12.9474 14.6582 12.4307V7.56934C14.6582 7.05176 14.9411 6.58665 15.3975 6.35645L16.6328 5.73242Z" fill="#019877"/>
</svg>
